<svg xmlns="http://www.w3.org/2000/svg" width="162" height="162" viewBox="0 0 162 162" fill="none"><g opacity="0.1"><path d="M66.8115 26.2363C65.8723 25.8405 43.594 16.6635 14.5133 26.6187C12.9704 27.1486 11.669 28.222 10.8573 29.6441C9.95167 31.2273 7 37.9021 7 57.269C7 75.67 9.72358 81.9892 11.347 84.1158C11.8166 84.733 12.3868 85.2629 13.0375 85.6788C14.3993 86.5576 22.2078 90.9382 42.6414 90.9382C50.9597 90.9382 57.1314 90.2606 61.6528 89.3751C61.465 93.0647 61.1698 96.7811 60.7606 100.498C59.3049 113.881 49.2893 124.326 36.4093 125.902C32.7332 126.345 30.1169 129.692 30.5597 133.368C30.9756 136.77 33.8669 139.265 37.2076 139.265C37.4827 139.265 37.7577 139.252 38.0328 139.211C57.1314 136.877 71.9635 121.555 74.0967 101.947C74.9017 94.5942 75.311 87.2285 75.311 80.0371C75.311 52.2646 70.9371 31.831 70.7493 30.9791C70.2864 28.8525 68.8173 27.0882 66.8115 26.2363Z" fill="#EFEFEF"></path><path d="M150.06 30.9858C149.597 28.8592 148.128 27.0882 146.122 26.2363C145.19 25.8405 122.905 16.6635 93.8243 26.6187C92.2814 27.1486 90.98 28.222 90.1683 29.6441C89.2626 31.2273 86.311 37.9021 86.311 57.269C86.311 75.67 89.0346 81.9892 90.658 84.1158C91.1276 84.733 91.6978 85.2629 92.3485 85.6788C93.7103 86.5576 101.519 90.9382 121.952 90.9382C130.271 90.9382 136.442 90.2606 140.964 89.3751C140.776 93.0647 140.481 96.7811 140.078 100.498C138.616 113.881 128.6 124.326 115.72 125.902C112.044 126.345 109.428 129.692 109.871 133.368C110.287 136.77 113.178 139.265 116.519 139.265C116.794 139.265 117.069 139.252 117.344 139.211C136.442 136.877 151.274 121.555 153.414 101.947C154.219 94.5808 154.622 87.215 154.622 80.0371C154.622 52.2646 150.248 31.8377 150.06 30.9858Z" fill="#EFEFEF"></path></g></svg>